<mxfile host="app.diagrams.net" modified="2024-06-02T13:42:28.061Z" agent="Mozilla/5.0 (Windows NT 10.0; Win64; x64; rv:126.0) Gecko/20100101 Firefox/126.0" etag="SxnchzWrobOhwPmbtPEK" version="24.4.13" type="github">
  <diagram name="Page-1" id="CNyWRxIXYyMBjOzjAjli">
    <mxGraphModel dx="2074" dy="1114" grid="1" gridSize="10" guides="1" tooltips="1" connect="1" arrows="1" fold="1" page="1" pageScale="1" pageWidth="1100" pageHeight="850" math="0" shadow="0">
      <root>
        <mxCell id="0" />
        <mxCell id="1" parent="0" />
        <mxCell id="ciEMd0aqTJuohbr5YmBl-50" value="" style="group" vertex="1" connectable="0" parent="1">
          <mxGeometry x="70" y="250" width="959.99" height="350" as="geometry" />
        </mxCell>
        <mxCell id="ciEMd0aqTJuohbr5YmBl-5" style="edgeStyle=orthogonalEdgeStyle;rounded=0;orthogonalLoop=1;jettySize=auto;html=1;exitX=0.5;exitY=1;exitDx=0;exitDy=0;entryX=0.5;entryY=0;entryDx=0;entryDy=0;" edge="1" parent="ciEMd0aqTJuohbr5YmBl-50" source="ciEMd0aqTJuohbr5YmBl-1" target="ciEMd0aqTJuohbr5YmBl-3">
          <mxGeometry relative="1" as="geometry" />
        </mxCell>
        <mxCell id="ciEMd0aqTJuohbr5YmBl-1" value="&lt;div&gt;&lt;b&gt;Jean-Didier Sitiho&lt;br&gt;&lt;/b&gt;&lt;/div&gt;&lt;div&gt;&lt;b&gt;Saisie de l&#39;URL :&amp;nbsp;&lt;/b&gt;&lt;/div&gt;&lt;div&gt;&lt;b&gt;https://gensdeconfiance.com&lt;br&gt;&lt;/b&gt;&lt;/div&gt;" style="rounded=1;whiteSpace=wrap;html=1;fillColor=#f0a30a;fontColor=#000000;strokeColor=#BD7000;" vertex="1" parent="ciEMd0aqTJuohbr5YmBl-50">
          <mxGeometry width="240" height="60" as="geometry" />
        </mxCell>
        <mxCell id="ciEMd0aqTJuohbr5YmBl-8" style="edgeStyle=orthogonalEdgeStyle;rounded=0;orthogonalLoop=1;jettySize=auto;html=1;exitX=0.5;exitY=1;exitDx=0;exitDy=0;entryX=0.5;entryY=1;entryDx=0;entryDy=0;" edge="1" parent="ciEMd0aqTJuohbr5YmBl-50" source="ciEMd0aqTJuohbr5YmBl-3" target="ciEMd0aqTJuohbr5YmBl-3">
          <mxGeometry relative="1" as="geometry" />
        </mxCell>
        <mxCell id="ciEMd0aqTJuohbr5YmBl-15" style="edgeStyle=orthogonalEdgeStyle;rounded=0;orthogonalLoop=1;jettySize=auto;html=1;exitX=1;exitY=0.5;exitDx=0;exitDy=0;" edge="1" parent="ciEMd0aqTJuohbr5YmBl-50" source="ciEMd0aqTJuohbr5YmBl-3" target="ciEMd0aqTJuohbr5YmBl-13">
          <mxGeometry relative="1" as="geometry" />
        </mxCell>
        <mxCell id="ciEMd0aqTJuohbr5YmBl-3" value="&lt;div&gt;&lt;b&gt;Browser&lt;/b&gt;&lt;/div&gt;&lt;div&gt;&lt;b&gt;(Chrome,Firefox..)&lt;br&gt;&lt;/b&gt;&lt;/div&gt;" style="ellipse;whiteSpace=wrap;html=1;fillColor=#76608a;strokeColor=#432D57;fontColor=#ffffff;" vertex="1" parent="ciEMd0aqTJuohbr5YmBl-50">
          <mxGeometry x="69.99" y="120" width="120" height="80" as="geometry" />
        </mxCell>
        <mxCell id="ciEMd0aqTJuohbr5YmBl-30" style="edgeStyle=orthogonalEdgeStyle;rounded=0;orthogonalLoop=1;jettySize=auto;html=1;exitX=0.75;exitY=0;exitDx=0;exitDy=0;" edge="1" parent="ciEMd0aqTJuohbr5YmBl-50" source="ciEMd0aqTJuohbr5YmBl-6" target="ciEMd0aqTJuohbr5YmBl-13">
          <mxGeometry relative="1" as="geometry" />
        </mxCell>
        <mxCell id="ciEMd0aqTJuohbr5YmBl-6" value="&lt;div&gt;&lt;br&gt;&lt;/div&gt;&lt;div&gt;Carte rÃ©seau&lt;/div&gt;" style="rounded=1;whiteSpace=wrap;html=1;" vertex="1" parent="ciEMd0aqTJuohbr5YmBl-50">
          <mxGeometry x="59.99" y="260" width="120" height="60" as="geometry" />
        </mxCell>
        <mxCell id="ciEMd0aqTJuohbr5YmBl-7" value="" style="image;aspect=fixed;perimeter=ellipsePerimeter;html=1;align=center;shadow=0;dashed=0;spacingTop=3;image=img/lib/active_directory/internet_cloud.svg;" vertex="1" parent="ciEMd0aqTJuohbr5YmBl-50">
          <mxGeometry x="104.11999999999999" y="270" width="31.75" height="20" as="geometry" />
        </mxCell>
        <mxCell id="ciEMd0aqTJuohbr5YmBl-18" style="edgeStyle=orthogonalEdgeStyle;rounded=0;orthogonalLoop=1;jettySize=auto;html=1;" edge="1" parent="ciEMd0aqTJuohbr5YmBl-50" source="ciEMd0aqTJuohbr5YmBl-13">
          <mxGeometry relative="1" as="geometry">
            <mxPoint x="389.99" y="160" as="targetPoint" />
          </mxGeometry>
        </mxCell>
        <mxCell id="ciEMd0aqTJuohbr5YmBl-13" value="&lt;div&gt;Fournisseur&lt;/div&gt;&lt;div&gt;Internet&lt;br&gt; &lt;/div&gt;" style="ellipse;whiteSpace=wrap;html=1;" vertex="1" parent="ciEMd0aqTJuohbr5YmBl-50">
          <mxGeometry x="240" y="120" width="120" height="80" as="geometry" />
        </mxCell>
        <mxCell id="ciEMd0aqTJuohbr5YmBl-20" style="edgeStyle=orthogonalEdgeStyle;rounded=0;orthogonalLoop=1;jettySize=auto;html=1;exitX=1;exitY=0.5;exitDx=0;exitDy=0;entryX=0;entryY=0.5;entryDx=0;entryDy=0;" edge="1" parent="ciEMd0aqTJuohbr5YmBl-50" source="ciEMd0aqTJuohbr5YmBl-19" target="ciEMd0aqTJuohbr5YmBl-21">
          <mxGeometry relative="1" as="geometry">
            <mxPoint x="519.99" y="160.33333333333348" as="targetPoint" />
          </mxGeometry>
        </mxCell>
        <mxCell id="ciEMd0aqTJuohbr5YmBl-19" value="IP" style="ellipse;whiteSpace=wrap;html=1;" vertex="1" parent="ciEMd0aqTJuohbr5YmBl-50">
          <mxGeometry x="389.99" y="135" width="80" height="50" as="geometry" />
        </mxCell>
        <mxCell id="ciEMd0aqTJuohbr5YmBl-25" style="edgeStyle=orthogonalEdgeStyle;rounded=0;orthogonalLoop=1;jettySize=auto;html=1;exitX=1;exitY=0.5;exitDx=0;exitDy=0;" edge="1" parent="ciEMd0aqTJuohbr5YmBl-50" source="ciEMd0aqTJuohbr5YmBl-21" target="ciEMd0aqTJuohbr5YmBl-22">
          <mxGeometry relative="1" as="geometry" />
        </mxCell>
        <mxCell id="ciEMd0aqTJuohbr5YmBl-21" value="Serveur DNS" style="ellipse;whiteSpace=wrap;html=1;" vertex="1" parent="ciEMd0aqTJuohbr5YmBl-50">
          <mxGeometry x="519.99" y="90" width="120" height="80" as="geometry" />
        </mxCell>
        <mxCell id="ciEMd0aqTJuohbr5YmBl-26" style="edgeStyle=orthogonalEdgeStyle;rounded=0;orthogonalLoop=1;jettySize=auto;html=1;" edge="1" parent="ciEMd0aqTJuohbr5YmBl-50" source="ciEMd0aqTJuohbr5YmBl-22">
          <mxGeometry relative="1" as="geometry">
            <mxPoint x="839.99" y="120" as="targetPoint" />
          </mxGeometry>
        </mxCell>
        <mxCell id="ciEMd0aqTJuohbr5YmBl-22" value="&lt;div&gt;Serveur Web&lt;/div&gt;" style="ellipse;whiteSpace=wrap;html=1;" vertex="1" parent="ciEMd0aqTJuohbr5YmBl-50">
          <mxGeometry x="679.99" y="80" width="120" height="80" as="geometry" />
        </mxCell>
        <mxCell id="ciEMd0aqTJuohbr5YmBl-37" style="edgeStyle=orthogonalEdgeStyle;rounded=0;orthogonalLoop=1;jettySize=auto;html=1;exitX=0.5;exitY=1;exitDx=0;exitDy=0;entryX=0.5;entryY=0;entryDx=0;entryDy=0;" edge="1" parent="ciEMd0aqTJuohbr5YmBl-50" source="ciEMd0aqTJuohbr5YmBl-28" target="ciEMd0aqTJuohbr5YmBl-34">
          <mxGeometry relative="1" as="geometry" />
        </mxCell>
        <mxCell id="ciEMd0aqTJuohbr5YmBl-28" value="Web page content" style="ellipse;whiteSpace=wrap;html=1;" vertex="1" parent="ciEMd0aqTJuohbr5YmBl-50">
          <mxGeometry x="839.99" y="80" width="120" height="80" as="geometry" />
        </mxCell>
        <mxCell id="ciEMd0aqTJuohbr5YmBl-29" value="" style="endArrow=classic;startArrow=classic;html=1;rounded=0;exitX=0.5;exitY=0;exitDx=0;exitDy=0;entryX=0.414;entryY=0.985;entryDx=0;entryDy=0;entryPerimeter=0;" edge="1" parent="ciEMd0aqTJuohbr5YmBl-50" source="ciEMd0aqTJuohbr5YmBl-6" target="ciEMd0aqTJuohbr5YmBl-3">
          <mxGeometry width="50" height="50" relative="1" as="geometry">
            <mxPoint x="94.99" y="250" as="sourcePoint" />
            <mxPoint x="144.99" y="200" as="targetPoint" />
          </mxGeometry>
        </mxCell>
        <mxCell id="ciEMd0aqTJuohbr5YmBl-42" style="edgeStyle=orthogonalEdgeStyle;rounded=0;orthogonalLoop=1;jettySize=auto;html=1;exitX=0;exitY=1;exitDx=0;exitDy=0;entryX=0;entryY=0.5;entryDx=0;entryDy=0;" edge="1" parent="ciEMd0aqTJuohbr5YmBl-50" target="ciEMd0aqTJuohbr5YmBl-3">
          <mxGeometry relative="1" as="geometry">
            <mxPoint x="897.5635931288073" y="278.2842712474617" as="sourcePoint" />
            <mxPoint x="39.99" y="170" as="targetPoint" />
            <Array as="points">
              <mxPoint x="899.99" y="278" />
              <mxPoint x="899.99" y="350" />
              <mxPoint x="19.99" y="350" />
              <mxPoint x="19.99" y="160" />
              <mxPoint x="39.99" y="160" />
              <mxPoint x="39.99" y="173" />
              <mxPoint x="59.99" y="173" />
            </Array>
          </mxGeometry>
        </mxCell>
        <mxCell id="ciEMd0aqTJuohbr5YmBl-34" value="Affichage du contenue de la page" style="ellipse;whiteSpace=wrap;html=1;" vertex="1" parent="ciEMd0aqTJuohbr5YmBl-50">
          <mxGeometry x="839.99" y="200" width="120" height="80" as="geometry" />
        </mxCell>
        <mxCell id="ciEMd0aqTJuohbr5YmBl-48" style="edgeStyle=orthogonalEdgeStyle;rounded=0;orthogonalLoop=1;jettySize=auto;html=1;" edge="1" parent="ciEMd0aqTJuohbr5YmBl-50" source="ciEMd0aqTJuohbr5YmBl-43" target="ciEMd0aqTJuohbr5YmBl-21">
          <mxGeometry relative="1" as="geometry">
            <mxPoint x="637.35" y="104.40000000000003" as="targetPoint" />
            <mxPoint x="666.63" y="74" as="sourcePoint" />
            <Array as="points">
              <mxPoint x="666.99" y="104" />
            </Array>
          </mxGeometry>
        </mxCell>
        <mxCell id="ciEMd0aqTJuohbr5YmBl-43" value="" style="image;aspect=fixed;html=1;points=[];align=center;fontSize=12;image=img/lib/azure2/networking/DNS_Zones.svg;" vertex="1" parent="ciEMd0aqTJuohbr5YmBl-50">
          <mxGeometry x="619.99" y="10" width="64" height="64" as="geometry" />
        </mxCell>
        <mxCell id="ciEMd0aqTJuohbr5YmBl-45" style="edgeStyle=orthogonalEdgeStyle;rounded=0;orthogonalLoop=1;jettySize=auto;html=1;exitX=0.5;exitY=0;exitDx=0;exitDy=0;entryX=0;entryY=0.469;entryDx=0;entryDy=0;entryPerimeter=0;" edge="1" parent="ciEMd0aqTJuohbr5YmBl-50" target="ciEMd0aqTJuohbr5YmBl-43">
          <mxGeometry relative="1" as="geometry">
            <mxPoint x="569.99" y="90" as="sourcePoint" />
            <mxPoint x="599.99" y="40" as="targetPoint" />
            <Array as="points">
              <mxPoint x="569.99" y="40" />
            </Array>
          </mxGeometry>
        </mxCell>
        <mxCell id="ciEMd0aqTJuohbr5YmBl-46" value="&lt;div&gt;RÃ©solution DNS&lt;/div&gt;" style="edgeLabel;html=1;align=center;verticalAlign=middle;resizable=0;points=[];labelBorderColor=#000000;" vertex="1" connectable="0" parent="ciEMd0aqTJuohbr5YmBl-45">
          <mxGeometry x="-0.2922" relative="1" as="geometry">
            <mxPoint as="offset" />
          </mxGeometry>
        </mxCell>
      </root>
    </mxGraphModel>
  </diagram>
</mxfile>
